<svg height="225pt" preserveAspectRatio="xMidYMid meet" viewBox="0 0 225 225" width="225pt" xmlns="http://www.w3.org/2000/svg"><g transform="matrix(.1 0 0 -.1 0 225)"><path d="m1080 1975c-9-11-7-12 10-8 16 4 19 2 14-11-4-10 0-18 12-23 10-4 19-2 22 5 2 7 11 12 20 12 15 0 15-2 2-10-13-9-13-10 1-10 8 0 23 6 32 13 15 10 12 12-19 14-19 1-46 9-59 17-20 13-25 13-35 1z"/><path d="m1104 1788c12-7 21-7 28 0 6 6 0 10-18 10-23 0-24-2-10-10z"/><path d="m1117 1761c1-2-5-18-13-35l-15-31 19 24c13 16 21 20 26 12 4-7 3-18-3-25-8-10-4-13 19-13 29 0 29 0 9 21-10 12-25 28-32 36-6 8-11 13-10 11z"/><path d="m1207 1669c7-7 15-10 18-7s-2 9-12 12c-14 6-15 5-6-5z"/><path d="m1205 1640c-3-6 1-7 9-4 18 7 21 14 7 14-6 0-13-4-16-10z"/><path d="m1153 1583c9-2 23-2 30 0 6 3-1 5-18 5-16 0-22-2-12-5z"/><path d="m1098 1573c6-2 18-2 25 0 6 3 1 5-13 5s-19-2-12-5z"/><path d="m1168 1553c7-3 16-2 19 1 4 3-2 6-13 5-11 0-14-3-6-6z"/><path d="m1002 1505c-244-150-478-424-537-629-28-94-7-221 58-353l30-63h563 564l31 61c39 78 69 196 69 270 0 124-95 296-262 475-67 71-214 197-242 207-16 6-16 10-5 25 13 15 12 16-3 4-9-8-23-10-30-6-8 5-3 12 17 20 17 7 24 13 17 14-7 0-22-5-33-10-14-8-28-6-58 10-62 31-97 26-179-25zm173-55c7-11-46-37-96-47-48-9-33 13 24 35 62 25 64 25 72 12zm-209-134c9-37 1-60-21-64-11-2-30-8-42-14-19-9-27-8-43 7-20 18-28 55-11 55 5 0 11-9 14-20s13-20 22-20c13 0 16 6 11 25-7 27 8 35 18 10 3-8 12-15 21-15 17 0 21 25 5 35-6 4-8 11-5 16 11 16 24 10 31-15zm227-37c20-17 37-38 37-47s-17-34-36-56l-36-38-44 43c-24 23-45 41-47 38-2-2-12-23-22-47-25-58-63-88-121-97l-48-7 69-34c96-47 100-53 85-100-19-59-78-169-105-194-22-20-25-21-47-6-13 9-45 19-71 22-40 6-48 4-54-12-11-33-79-127-127-179l-46-50 45 80c61 108 59 162-10 244-28 32-28 35-16 80 15 56 36 91 57 91 8 0 33-29 56-65 41-63 43-65 84-65 24 0 66-5 94-11s54-8 58-5c11 11-41 51-98 76-30 13-61 28-67 33-17 12-16 70 1 111 19 45 53 66 181 111 93 32 115 44 143 76 19 22 37 39 41 39 3 0 23-14 44-31zm-435-142c7-35-8-67-33-73-48-12-73 39-38 78 21 24 66 20 71-5zm802-28c0-11-55-37-101-46-48-9-33 13 24 35 60 24 77 26 77 11zm-257-79c100-56 108-92 48-216-44-92-88-135-155-154-97-27-132 19-119 153 5 59 8 67 14 43 19-69 62-81 163-43 67 26 67 27-38 87-59 35-61 38-64 80-2 25-1 64 3 88l6 43 42-24c23-14 68-39 100-57zm305-82c57-90 67-128 49-183-17-49-76-138-136-205l-41-45 49 95c37 70 48 102 44 122-3 18-10 25-17 21-18-12-79-13-93-1-19 16-16 49 13 130 55 153 71 161 132 66zm-610-270c-4-11-88-46-116-47-31-2-2 24 44 40 59 21 77 23 72 7z"/><path d="m696 1115c-3-9 1-18 10-22 19-7 39 11 30 26-10 16-33 13-40-4z"/><path d="m822 370c0-19 2-27 5-17 2 9 2 25 0 35-3 9-5 1-5-18z"/><path d="m1460 376c0-14 4-27 8-30 5-3 6 8 4 25-5 35-12 38-12 5z"/><path d="m963 374c1-11-4-18-10-16-7 1-13-2-13-8 0-5 6-10 14-10 18 0 30 30 17 43-6 6-9 2-8-9z"/><path d="m1114 379c-3-6-1-15 6-19 15-9 5-30-15-30-8 0-19 8-25 18-7 10-10 11-7 3 2-8 11-19 20-25 23-15 56 16 39 37-7 8-9 17-5 20 3 4 4 7 0 7-3 0-9-5-13-11z"/><path d="m462 355c0-16 2-22 5-12 2 9 2 23 0 30-3 6-5-1-5-18z"/><path d="m511 363c-1-12-9-27-18-32-10-6-13-10-8-10 23 0 42 24 34 44-7 19-8 19-8-2z"/><path d="m578 364c-5-19 0-23 30-28 20-3 38-3 41-1 2 3-3 5-12 5-17 0-22 11-10 23 3 4 13 1 22-6 14-11 14-10 2 6s-16 16-31 2c-21-19-28-19-32 3-3 14-5 14-10-4z"/><path d="m757 363c3-14 1-23-6-23-6 0-11 8-11 18 0 11-3 13-8 5-4-6-20-10-35-9-15 2-27 0-27-4 0-15 30-18 113-10 15 1 18 3 7 7-8 4-20 13-27 22-10 14-11 13-6-6z"/><path d="m859 364c-6-8-9-17-5-21 3-3 6-1 6 5 0 15 36 16 45 2 3-5 11-10 16-10 14 0-11 24-33 32-9 4-22 0-29-8z"/><path d="m1037 361c-4-17-3-21 5-13 5 5 8 16 6 23-3 8-7 3-11-10z"/><path d="m1159 353c-4-23-2-30 5-24 6 5 25 11 41 14l30 4-32 2c-21 1-33 7-35 19-3 10-6 4-9-15z"/><path d="m1237 359c4-13 8-18 11-10 2 7-1 18-6 23-8 8-9 4-5-13z"/><path d="m1391 364c-1-31 24-50 44-34 8 7 15 22 14 34-1 19-2 18-8-4-4-14-13-25-21-25s-17 11-21 25c-6 22-7 23-8 4z"/><path d="m1497 360c-3-11-1-20 4-20s9 9 9 20-2 20-4 20-6-9-9-20z"/><path d="m1527 361c-4-17-3-21 5-13 5 5 8 16 6 23-3 8-7 3-11-10z"/><path d="m1579 352c-4-22-2-29 5-22 5 5 27 10 49 10 31 0 38 3 35 17-2 9-9 18-16 19s-8 0-2-3c21-10 8-23-24-23-25 0-36 5-38 18-3 10-6 3-9-16z"/><path d="m1705 370c3-5 8-10 11-10 2 0 4 5 4 10 0 6-5 10-11 10-5 0-7-4-4-10z"/><path d="m1740 349c0-5 9-9 20-9s20 2 20 4-9 6-20 9-20 1-20-4z"/><path d="m1293 343c9-2 25-2 35 0 9 3 1 5-18 5s-27-2-17-5z"/></g></svg>