<svg id="Capa_1" enable-background="new 0 0 512 512" height="512" viewBox="0 0 512 512" width="512" xmlns="http://www.w3.org/2000/svg"><g id="XMLID_1736_"><g id="XMLID_529_"><path id="XMLID_540_" d="m500.736 357.171c6.931-6.6 11.264-15.904 11.264-26.207 0-15.403-9.672-28.582-23.258-33.804 3.275-5.442 5.163-11.809 5.163-18.61 0-19.965-16.242-36.208-36.207-36.208h-147.766l20.225-20.224c11.212-11.212 17.719-26.114 18.321-41.96.603-15.846-4.754-31.198-15.084-43.23-8.036-9.36-22.324-10.597-31.848-2.759l-73.806 60.738c-16.366 13.468-30.223 29.405-41.253 47.435h-176.487c-5.523 0-10 4.477-10 10s4.477 10 10 10h182.192c3.591 0 6.906-1.925 8.686-5.044 10.266-17.992 23.579-33.787 39.571-46.947l73.806-60.738c1.185-.976 2.963-.823 3.964.343 14.458 16.841 13.489 42.326-2.205 58.021l-22.025 22.023c-5.438 5.438-7.049 13.542-4.105 20.647 2.942 7.104 9.812 11.694 17.502 11.694h36.363c-2.454 4.88-3.845 10.383-3.845 16.207 0 10.303 4.333 19.608 11.264 26.207-6.931 6.6-11.264 15.904-11.264 26.207s4.333 19.608 11.264 26.207c-6.931 6.6-11.264 15.904-11.264 26.207s4.333 19.608 11.264 26.207c-6.931 6.6-11.264 15.904-11.264 26.207 0 5.825 1.391 11.327 3.845 16.207h-91.967c-16.622 0-32.393-6.328-44.405-17.818-3.99-3.817-10.322-3.677-14.139.315-3.817 3.991-3.677 10.321.314 14.139 15.753 15.069 36.432 23.367 58.23 23.367h205.915c19.965 0 36.207-16.243 36.207-36.207 0-6.801-1.888-13.168-5.163-18.61 13.587-5.223 23.259-18.402 23.259-33.805 0-10.303-4.333-19.607-11.264-26.207zm-140.832-78.622c0-8.937 7.271-16.207 16.207-16.207h81.586c8.936 0 16.207 7.27 16.207 16.207s-7.271 16.207-16.207 16.207h-81.586c-8.936 0-16.207-7.27-16.207-16.207zm0 52.414c0-8.937 7.271-16.207 16.207-16.207h99.682c8.936 0 16.207 7.271 16.207 16.207 0 8.937-7.271 16.207-16.207 16.207h-99.682c-8.936.001-16.207-7.27-16.207-16.207zm97.793 121.037h-81.586c-8.936 0-16.207-7.271-16.207-16.207 0-8.937 7.271-16.207 16.207-16.207h81.586c8.936 0 16.207 7.271 16.207 16.207s-7.27 16.207-16.207 16.207zm18.096-52.415h-99.682c-8.936 0-16.207-7.27-16.207-16.207 0-8.936 7.271-16.207 16.207-16.207h99.682c8.936 0 16.207 7.271 16.207 16.207 0 8.937-7.271 16.207-16.207 16.207z"/><path id="XMLID_556_" d="m110.465 431.409h-100.465c-5.523 0-10 4.477-10 10s4.477 10 10 10h100.465c5.522 0 10-4.477 10-10s-4.478-10-10-10z"/><path id="XMLID_1010_" d="m370.064 109.021 17.294 12.486-6.614 20.299c-2.67 8.192.11 16.757 7.082 21.82 3.481 2.528 7.47 3.792 11.459 3.792 3.997-.001 7.996-1.27 11.482-3.81l17.27-12.582 17.152 12.466c6.975 5.069 15.981 5.064 22.948-.013 6.967-5.076 9.732-13.649 7.045-21.839l-6.605-20.131 17.256-12.512c6.971-5.055 9.759-13.613 7.102-21.804-2.657-8.19-9.938-13.483-18.548-13.483h-21.435l-6.557-20.224c-2.658-8.195-9.936-13.486-18.548-13.486-.008 0-.017 0-.024 0-8.623.01-15.901 5.321-18.542 13.531l-6.487 20.179h-21.315c-8.62 0-15.903 5.3-18.555 13.502-2.652 8.203.15 16.763 7.14 21.809zm40.018-15.311c4.344 0 8.19-2.804 9.521-6.939l8.245-25.642 8.32 25.665c1.337 4.124 5.178 6.916 9.513 6.916l27.162.001-21.911 15.888c-3.519 2.551-4.986 7.083-3.632 11.213l8.394 25.59-21.785-15.834c-3.509-2.55-8.261-2.548-11.768.007l-21.902 15.956 8.395-25.764c1.347-4.132-.13-8.662-3.654-11.206l-21.954-15.851z"/><path id="XMLID_1011_" d="m155.47 431.41c-2.64 0-5.21 1.07-7.08 2.93-1.859 1.86-2.92 4.44-2.92 7.07s1.061 5.21 2.92 7.07c1.86 1.86 4.44 2.93 7.08 2.93 2.63 0 5.21-1.07 7.061-2.93 1.869-1.86 2.939-4.44 2.939-7.07s-1.07-5.21-2.939-7.07c-1.861-1.86-4.431-2.93-7.061-2.93z"/></g></g></svg>