<svg id="Capa_1" enable-background="new 0 0 511.729 511.729" height="512" viewBox="0 0 511.729 511.729" width="512" xmlns="http://www.w3.org/2000/svg"><path d="m0 425.164 106.071-56.957c2.117-1.012 4.654-.581 6.314 1.074l29.719 29.629c1.66 1.655 2.093 4.184 1.077 6.294l-57.132 105.75z" fill="#2f7a77"/><path d="m43.025 468.059 43.025 42.895 57.132-105.751c1.016-2.109.583-4.639-1.077-6.294l-14.86-14.815z" fill="#084e41"/><path d="m329.755 86.07c-15.458-15.411-15.399-40.544.131-56.026 15.529-15.482 40.739-15.541 56.196-.13s15.399 40.544-.13 56.026c-15.53 15.482-40.739 15.54-56.197.13z" fill="#b45d4a"/><path d="m263.59 68.451c-15.457-15.411-15.399-40.544.131-56.026 15.53-15.483 40.739-15.541 56.197-.13s15.399 40.544-.131 56.026-40.739 15.541-56.197.13z" fill="#94443f"/><path d="m196.861 83.34c-15.457-15.411-15.399-40.544.131-56.026 15.529-15.482 40.739-15.541 56.196-.13 15.457 15.41 15.398 40.543-.131 56.026-15.529 15.482-40.738 15.54-56.196.13z" fill="#b45d4a"/><path d="m146.861 130.183c-15.457-15.411-15.399-40.544.131-56.026 15.529-15.482 40.739-15.541 56.196-.13s15.399 40.544-.13 56.026c-15.53 15.482-40.74 15.541-56.197.13z" fill="#94443f"/><path d="m118.868 192.57c-15.457-15.411-15.399-40.544.13-56.026 15.53-15.483 40.739-15.541 56.197-.13 15.457 15.411 15.399 40.544-.131 56.026s-40.739 15.541-56.196.13z" fill="#b45d4a"/><path d="m112.628 260.483c-15.457-15.411-15.399-40.544.131-56.026 15.529-15.482 40.739-15.541 56.196-.13s15.399 40.544-.13 56.026-40.739 15.541-56.197.13z" fill="#94443f"/><path d="m111.38 328.785c-15.457-15.411-15.399-40.544.131-56.026 15.529-15.482 40.739-15.541 56.196-.13 15.458 15.411 15.399 40.544-.13 56.026-15.53 15.482-40.739 15.541-56.197.13z" fill="#b45d4a"/><path d="m426.175 182.197c-15.457-15.41-15.399-40.544.131-56.026 15.529-15.482 40.739-15.54 56.196-.13s15.399 40.544-.13 56.026c-15.531 15.482-40.74 15.54-56.197.13z" fill="#b45d4a"/><path d="m443.847 248.161c-15.457-15.41-15.399-40.544.13-56.026 15.53-15.483 40.74-15.541 56.197-.13 15.457 15.41 15.399 40.544-.131 56.026-15.529 15.483-40.739 15.541-56.196.13z" fill="#94443f"/><path d="m428.913 314.688c-15.457-15.41-15.399-40.544.131-56.026 15.529-15.482 40.739-15.54 56.196-.13s15.399 40.544-.13 56.026c-15.53 15.483-40.74 15.541-56.197.13z" fill="#b45d4a"/><path d="m373.084 363.778c-15.175-15.129-15.118-39.804.128-55.004s39.995-15.257 55.17-.128 15.118 39.804-.128 55.003c-15.245 15.201-39.995 15.258-55.17.129z" fill="#94443f"/><path d="m319.35 392.446c-15.457-15.41-15.398-40.543.131-56.025 15.53-15.483 40.739-15.541 56.196-.131s15.399 40.544-.131 56.026c-15.529 15.482-40.739 15.54-56.196.13z" fill="#b45d4a"/><path d="m251.232 398.667c-15.457-15.41-15.399-40.544.131-56.026 15.529-15.482 40.739-15.54 56.196-.13s15.399 40.544-.13 56.026c-15.53 15.482-40.74 15.54-56.197.13z" fill="#94443f"/><path d="m182.722 399.911c-15.457-15.41-15.399-40.544.131-56.026 15.529-15.482 40.739-15.54 56.196-.13s15.399 40.544-.13 56.026c-15.53 15.482-40.74 15.54-56.197.13z" fill="#b45d4a"/><path d="m111.147 400.144c-14.624-14.58-12.638-40.283 4.427-57.296s42.846-18.993 57.47-4.413 12.638 40.282-4.427 57.295c-17.066 17.013-42.846 18.993-57.47 4.414z" fill="#94443f"/><path d="m173.043 338.435-61.896 61.708c14.624 14.579 40.404 12.6 57.469-4.414 17.065-17.012 19.051-42.715 4.427-57.294z" fill="#452123"/><path d="m379.991 132.157c-15.457-15.41-15.399-40.544.131-56.026 15.529-15.482 40.739-15.541 56.196-.13s15.399 40.544-.13 56.026c-15.529 15.483-40.739 15.541-56.197.13z" fill="#94443f"/><path d="m436.318 76.001c-.007-.007-.015-.014-.023-.021l-56.326 56.155c.007.007.014.015.021.022 15.457 15.411 40.667 15.353 56.197-.13 15.531-15.482 15.589-40.616.131-56.026z" fill="#452123"/></svg>